<?xml version="1.0" encoding="utf-8" ?><svg xmlns="http://www.w3.org/2000/svg" xmlns:xlink="http://www.w3.org/1999/xlink" width="665" height="889" viewBox="0 0 665 889"><clipPath id="cl_3"><rect x="0.00012207031" y="-1.5258789e-05" width="664.99994" height="889"/></clipPath><g clip-path="url(#cl_3)"><path fill="#1D1C1C" transform="matrix(1.14065 0 0 1.14121 -192.77 -247.642)" d="M523.603 224.667C559.14 223.397 580.153 232.564 609.495 250.785C660.488 241.398 698.153 239.495 749.136 247.862C725.592 263.451 698.462 275.313 672.609 286.615C658.997 292.565 640.082 299.542 627.606 307.375C622.089 310.84 610.296 325.345 605.914 330.911C566.555 380.898 602.996 389.935 607.978 434.355C616.342 508.928 585.591 574.33 540.98 631.285C545.318 631.946 552.212 634.1 556.361 634.148C562.751 634.223 568.837 633.474 575.469 633.462C600.484 610.787 625.343 587.942 650.046 564.928C658.263 557.344 666.352 549.653 674.617 542.099C681.828 535.223 691.286 531.288 701.368 531.95C722.952 533.542 742.347 554.211 740.58 576.193C739.471 589.986 730.826 596.771 721.409 605.614C715.342 611.312 709.141 616.902 702.967 622.506L656.142 665.271C645.958 674.502 635.65 683.572 625.746 693.138C620.18 698.514 620.276 701.784 616.516 708.371C613.54 713.583 610.228 716.708 605.678 720.492C605.325 717.54 604.925 714.594 604.478 711.654C578.181 735.116 552.262 760.088 525.752 783.152C523.059 795.271 516.773 803.784 506.909 811.107C506.751 807.751 506.313 804.068 505.98 800.694C478.726 823.917 453.106 848.413 426.701 872.552C417.453 881.007 402.852 895.13 393.401 902.002C371.31 918.065 336.767 881.954 338.965 859.143C340.231 846.003 348.557 841.598 357.586 833.269C377.235 816.868 400.85 794.042 420.038 776.425C418.549 762.122 421.595 750.144 435.232 743.118C428.516 739.296 420.667 737.898 413.17 736.426C398.186 746.083 382.548 754.684 366.369 762.167C357.781 766.139 348.424 769.637 340.159 773.603C338.182 782.978 334.009 797.287 330.783 806.558C315.661 850.014 302.787 934.025 249.586 945.978C235.1 966.974 217.316 995.984 187.278 989.104C190.017 972.195 196.951 948.414 201.526 931.318C212.842 889.027 225.693 846.862 237.732 804.709C214.892 815.011 194.081 826.328 170.171 835.694C178.045 816.891 188.341 796.063 197.085 777.486C208.388 753.251 219.551 728.95 230.574 704.585C261.443 636.385 286.639 571.63 327.796 508.375C340.933 487.815 355.457 468.174 371.267 449.589C379.642 439.825 388.331 430.334 397.32 421.132C409.867 408.437 430.024 392.651 436.974 377.099C447.311 353.966 440.287 333.409 431.769 311.483C430.649 310.982 429.537 310.464 428.433 309.929C404.542 298.341 385.523 275.011 376.865 250.107C392.994 251.519 402.68 253.416 419.556 251.17C458.322 246.011 483.653 227.388 523.603 224.667ZM512.262 661.564C499.469 673.43 488.155 683.751 474.363 694.489C466.884 700.312 458.764 706.003 451.482 711.753C455.043 714.923 458.007 717.295 461.753 720.187L466.291 723.285C470.418 723.338 474.733 723.462 478.842 723.419L515.632 689.629C514.234 679.49 515 672.13 521.386 663.749C522.136 662.775 522.914 661.823 523.719 660.895L516.705 661.298L512.262 661.564Z"/><path fill="#366688" transform="matrix(1.14065 0 0 1.14121 -192.77 -247.642)" d="M391.117 260.84C402.566 261.349 408.905 262.349 420.813 261.054C453.828 257.464 483.09 239.283 515.384 235.155C547.191 231.06 579.317 239.831 604.632 259.521C603.51 262.933 602.308 266.629 599.98 269.393L594.054 275.973C590.947 279.432 582.756 289.17 579.899 291.695C583.307 293.608 586.596 295.149 590.116 296.822C592.034 297.648 597.302 299.774 598.853 300.696C604.518 303.247 608.986 304.292 614.968 305.882C598.059 325.376 576.66 347.266 578.372 375.078C579.38 391.464 589.582 402.984 594.775 418.625C598.408 429.566 597.296 435.835 599.259 444.636C600.21 451.517 599.589 464.863 599.096 471.887C591.881 574.829 516.912 655.224 435.882 710.709C440.293 714.891 444.885 718.842 449.411 722.844C457.16 729.856 461.774 734.159 472.824 733.033C494.517 730.823 517.277 751.334 518.076 772.912C518.252 777.662 515.67 788.207 512.198 791.178C509.38 788.987 508.691 774.878 506.816 770.787C501.146 758.419 487.572 748.262 474.634 745.549C484.254 751.951 492.055 758.57 496.994 769.366C502.884 782.239 501.35 792.706 486.909 797.743C489.823 790.117 490.904 784.167 487.407 776.389C479.594 759.01 458.642 751.144 441.275 758.839C436.588 760.914 433.789 763.539 430.081 766.825C429.363 765.205 429.998 762.602 430.661 761.027C434.415 752.105 445.653 749.046 454.079 747.131C442.918 732.93 430.106 729.388 412.925 725.986C404.787 729.659 393.446 737.766 384.97 742.343C367.152 751.964 350.527 758.958 331.797 766.351C327.083 787.091 320.451 807.873 314.261 828.228C307.726 849.716 300.928 872.065 291.972 892.669C284.393 910.106 270.645 927.037 253.253 935.034C258.786 911.616 264.954 886.768 268.594 863.043C254.213 899.318 241.493 968.757 199.171 981.315C210.283 933.359 224.229 887.06 237.8 839.793C241.536 826.781 247.186 810.166 250.133 797.457C316.266 760.959 374.431 717.851 430.384 667.022C475.338 626.184 522.393 582.652 540.58 522.583C544.806 508.626 550.697 466.986 542.858 455.005C544.713 518.943 514.724 566.527 472.466 612.744C465.548 620.31 454.168 631.909 446.411 638.012C443.21 642.528 382.598 696.61 378.444 698.367C323.132 746.497 255.597 785.953 189.554 817.194C193.724 806.747 200.283 794.549 205.045 783.587C206.101 781.04 207.424 778.451 208.615 775.954C218.404 755.438 227.41 734.603 237.345 714.147C240.302 706.739 244.275 698.274 247.714 691.105C249.454 685.507 259.397 664.152 261.938 659.007C263.932 653.852 266.527 648.116 268.715 642.98C275.498 627.869 287.039 599.935 294.908 586.476C298.202 579.098 302.503 571.18 306.348 564.088C307.255 561.488 318.137 543.209 320.113 539.785C338.654 507.67 360.721 476.302 385.28 448.519C397.7 434.47 410.872 421.979 424.261 408.914C429.155 404.048 433.731 399.587 437.867 394.006C448.8 379.407 453.445 361.043 450.769 343.001C450.78 343.024 447.153 325.802 446.433 323.362C445.08 319.851 441.095 310.198 440.834 307.055C438.44 302.469 427.016 299.397 421.735 295.447C414.401 289.961 411.354 286.784 405.429 280.132L414.206 280.037C403.901 274.044 397.816 271.356 391.117 260.84Z"/><path fill="#366688" transform="matrix(1.14065 0 0 1.14121 -192.77 -247.642)" d="M294.908 586.476C297.871 607.405 312.431 611.253 330.292 603.392C330.683 618.14 337.966 627.282 353.718 627.283C360.244 627.283 366.049 624.542 371.814 621.767C371.433 625.764 371.209 631.223 373.516 634.606C385.914 652.782 410.404 638.52 421.218 628.834C418.194 648.879 435.247 643.474 446.411 638.012C443.21 642.528 382.598 696.61 378.444 698.367C323.132 746.497 255.597 785.953 189.554 817.194C193.724 806.747 200.283 794.549 205.045 783.587C206.101 781.04 207.424 778.451 208.615 775.954C218.404 755.438 227.41 734.603 237.345 714.147C240.302 706.739 244.275 698.274 247.714 691.105C249.454 685.507 259.397 664.152 261.938 659.007C263.932 653.852 266.527 648.116 268.715 642.98C275.498 627.869 287.039 599.935 294.908 586.476Z"/><path fill="#F8CA47" transform="matrix(1.14065 0 0 1.14121 -192.77 -247.642)" d="M205.045 783.587C254.445 776.393 300.006 747.732 342.012 721.856C349.439 717.281 372.192 700.715 378.444 698.367C323.132 746.497 255.597 785.953 189.554 817.194C193.724 806.747 200.283 794.549 205.045 783.587Z"/><path fill="#F8CA47" transform="matrix(1.14065 0 0 1.14121 -192.77 -247.642)" d="M247.714 691.105C251.984 691.734 255.373 693.038 258.029 696.832C260.198 699.982 260.936 703.902 260.061 707.625C258.527 714.305 253.717 716.987 247.581 718.479C242.854 717.485 241.374 717.122 237.345 714.147C240.302 706.739 244.275 698.274 247.714 691.105Z"/><path fill="#F8CA47" transform="matrix(1.14065 0 0 1.14121 -192.77 -247.642)" d="M268.715 642.98C276.267 642.698 284.07 644.697 284.133 653.9C284.151 657.348 282.779 660.658 280.326 663.081C273.762 669.558 265.866 666.364 261.938 659.007C263.932 653.852 266.527 648.116 268.715 642.98Z"/><path fill="#F8CA47" transform="matrix(1.14065 0 0 1.14121 -192.77 -247.642)" d="M282.628 719.801C289.966 719.081 296.54 724.34 297.45 731.657C298.361 738.974 293.275 745.684 285.985 746.784C281.097 747.521 276.195 745.549 273.18 741.632C270.165 737.715 269.512 732.47 271.476 727.934C273.439 723.398 277.709 720.284 282.628 719.801Z"/><path fill="#F8CA47" transform="matrix(1.14065 0 0 1.14121 -192.77 -247.642)" d="M323.806 685.409C330.728 684.33 337.211 689.078 338.272 696.004C339.333 702.93 334.569 709.401 327.641 710.445C320.738 711.485 314.295 706.741 313.238 699.84C312.18 692.939 316.907 686.483 323.806 685.409Z"/><path fill="#F8CA47" transform="matrix(1.14065 0 0 1.14121 -192.77 -247.642)" d="M294.751 664.639C300.66 662.922 306.849 666.29 308.617 672.185C310.384 678.08 307.069 684.298 301.19 686.116C295.239 687.957 288.929 684.593 287.14 678.626C285.351 672.658 288.769 666.377 294.751 664.639Z"/><path fill="#F8CA47" transform="matrix(1.14065 0 0 1.14121 -192.77 -247.642)" d="M362.361 649.934C368.121 649.67 373.025 654.08 373.372 659.836C373.72 665.591 369.382 670.56 363.633 670.992C359.838 671.277 356.184 669.496 354.071 666.331C351.957 663.166 351.712 659.108 353.429 655.712C355.146 652.316 358.56 650.107 362.361 649.934Z"/><path fill="#F8CA47" transform="matrix(1.14065 0 0 1.14121 -192.77 -247.642)" d="M308.161 612.768C313.761 611.982 318.95 615.848 319.799 621.439C320.648 627.03 316.84 632.262 311.26 633.174C307.594 633.774 303.889 632.356 301.558 629.463C299.228 626.57 298.632 622.647 299.999 619.193C301.365 615.738 304.482 613.284 308.161 612.768Z"/><path fill="#F8CA47" transform="matrix(1.14065 0 0 1.14121 -192.77 -247.642)" d="M333.587 631.997C338.973 630.831 344.303 634.183 345.586 639.542C346.869 644.901 343.635 650.303 338.306 651.703C334.753 652.636 330.974 651.574 328.428 648.927C325.882 646.279 324.968 642.461 326.038 638.947C327.109 635.434 329.997 632.775 333.587 631.997Z"/><path fill="#FEFEFE" transform="matrix(1.14065 0 0 1.14121 -192.77 -247.642)" d="M466.711 551.292C496.448 566.113 532.794 497.472 537.581 474.34C537.961 472.502 542.463 452.946 541.918 453.833L542.858 455.005C544.713 518.943 514.724 566.527 472.466 612.744C465.548 620.31 454.168 631.909 446.411 638.012C435.247 643.474 418.194 648.879 421.218 628.834C410.404 638.52 385.914 652.782 373.516 634.606C371.209 631.223 371.433 625.764 371.814 621.767C366.049 624.542 360.244 627.283 353.718 627.283C337.966 627.282 330.683 618.14 330.292 603.392C312.431 611.253 297.871 607.405 294.908 586.476C298.202 579.098 302.503 571.18 306.348 564.088C307.036 571.306 306.013 575.746 309.976 582.662C318.942 598.311 338.067 592.377 350.537 585.242C352.159 596.146 360.692 602.346 371.569 601.285C386.992 599.78 399.508 589.341 409.351 578.136C423.371 596.24 445.75 578.304 456.257 565.882C460.332 561.064 463.342 556.621 466.711 551.292Z"/><path fill="#366688" transform="matrix(1.14065 0 0 1.14121 -192.77 -247.642)" d="M391.117 260.84C402.566 261.349 408.905 262.349 420.813 261.054C453.828 257.464 483.09 239.283 515.384 235.155C547.191 231.06 579.317 239.831 604.632 259.521C603.51 262.933 602.308 266.629 599.98 269.393L594.054 275.973C584.62 274.085 575.123 272.521 565.581 271.285C562.67 264.794 556.216 260.621 549.102 260.63C541.989 260.638 535.545 264.828 532.65 271.326C517.111 271.929 503.358 274.388 488.406 278.389C462.909 285.211 456.431 301.718 446.433 323.362C445.08 319.851 441.095 310.198 440.834 307.055C438.44 302.469 427.016 299.397 421.735 295.447C414.401 289.961 411.354 286.784 405.429 280.132L414.206 280.037C403.901 274.044 397.816 271.356 391.117 260.84Z"/><path fill="#F8CA47" transform="matrix(1.14065 0 0 1.14121 -192.77 -247.642)" d="M440.834 307.055C448.148 287.986 456.645 276.732 475.768 268.426C514.431 251.633 561.412 254.937 599.98 269.393L594.054 275.973C584.62 274.085 575.123 272.521 565.581 271.285C562.67 264.794 556.216 260.621 549.102 260.63C541.989 260.638 535.545 264.828 532.65 271.326C517.111 271.929 503.358 274.388 488.406 278.389C462.909 285.211 456.431 301.718 446.433 323.362C445.08 319.851 441.095 310.198 440.834 307.055Z"/><path fill="#FEFEFE" transform="matrix(1.14065 0 0 1.14121 -192.77 -247.642)" d="M598.853 300.696C604.518 303.247 608.986 304.292 614.968 305.882C598.059 325.376 576.66 347.266 578.372 375.078C579.38 391.464 589.582 402.984 594.775 418.625C598.408 429.566 597.296 435.835 599.259 444.636C599.167 446.07 599.278 448.189 598.587 449.184C594.198 441.198 587.576 429.026 582.164 421.922L579.02 429.769C575.635 415.423 574.584 408.506 563.791 397.73L563.068 408.528C556.782 400.644 551.234 392.555 547.388 383.197L543.734 390.4C540.591 384.604 540.32 381.523 539.18 375.093L532.855 381.553C528.588 370.288 527.528 361.679 534.696 351.439C543.559 347.751 547.398 345.418 554.381 338.528C567.539 325.544 586.208 313.941 598.853 300.696Z"/><path fill="#FEFEFE" transform="matrix(1.14065 0 0 1.14121 -192.77 -247.642)" d="M462.732 324.674C472.852 339.124 486.488 344.219 502.99 348.618C500.448 349.761 487.685 354.772 489.421 358.168C491.253 361.75 490.255 366.65 491.918 369.781C504.778 394.002 521.97 390.264 529.582 420.881C505.77 394.044 475.664 396.673 443.463 403.677C439.015 404.645 427.61 409.065 424.261 408.914C429.155 404.048 433.731 399.587 437.867 394.006C448.8 379.407 453.445 361.043 450.769 343.001C452.251 335.613 457.199 329.505 462.732 324.674Z"/><path fill="#F8CA47" transform="matrix(1.14065 0 0 1.14121 -192.77 -247.642)" d="M484.824 327.487C514.445 331.792 523.981 329.331 546.777 311.269C554.269 305.332 571.27 295.537 579.899 291.695C583.307 293.608 586.596 295.149 590.116 296.822C585.805 301.222 569.629 312.067 563.797 316.542C557.256 321.561 544.586 332.68 538.388 336.355C534.57 338.647 530.325 340.138 525.913 340.737C511.018 342.774 496.409 336.407 484.824 327.487Z"/><path fill="#1D1C1C" transform="matrix(1.14065 0 0 1.14121 -192.77 -247.642)" d="M532.65 271.326C535.545 264.828 541.989 260.638 549.102 260.63C556.216 260.621 562.67 264.794 565.581 271.285C568.972 278.847 566.774 287.747 560.253 292.86C553.731 297.974 544.565 297.985 538.031 292.887C531.497 287.79 529.278 278.896 532.65 271.326Z"/><path fill="#FEFEFE" transform="matrix(1.14065 0 0 1.14121 -192.77 -247.642)" d="M545.334 267.502C551.406 265.526 557.934 268.825 559.944 274.887C561.955 280.948 558.693 287.495 552.644 289.54C546.546 291.601 539.935 288.307 537.908 282.197C535.882 276.087 539.213 269.495 545.334 267.502Z"/><path fill="#1D1C1C" transform="matrix(1.14065 0 0 1.14121 -192.77 -247.642)" d="M547.931 273.02C551.092 272.103 554.404 273.888 555.375 277.033C556.346 280.178 554.617 283.521 551.49 284.545C549.419 285.224 547.143 284.732 545.536 283.259C543.93 281.786 543.243 279.561 543.74 277.439C544.236 275.317 545.838 273.628 547.931 273.02Z"/><path fill="#F8CA47" transform="matrix(1.14065 0 0 1.14121 -192.77 -247.642)" d="M587.176 635.507C616.768 609.04 645.648 581.627 675.123 555.015C679.043 551.454 682.646 547.579 687.21 544.798C710.931 530.347 743.66 565.115 726.157 587.54C723.89 590.445 721.358 592.848 718.666 595.335C687.285 624.325 655 652.598 623.821 681.783C621.689 664.207 615.619 654.962 602.149 643.419C614.694 631.081 629.633 616.887 643.048 605.571L641.508 604.427C622.885 616.249 611.913 624.016 595.345 639.145C592.81 637.983 589.729 636.472 587.176 635.507Z"/><path fill="#6F5126" transform="matrix(1.14065 0 0 1.14121 -192.77 -247.642)" d="M641.508 604.427C644.042 602.816 646.727 601.04 649.3 599.531C647.93 600.895 644.393 604.574 643.048 605.571L641.508 604.427Z"/><defs><linearGradient id="gradient_0" gradientUnits="userSpaceOnUse" x1="667.95581" y1="611.50159" x2="674.69531" y2="618.09229"><stop offset="0" stop-color="#656C6D"/><stop offset="1" stop-color="#3E6787"/></linearGradient></defs><path fill="url(#gradient_0)" transform="matrix(1.14065 0 0 1.14121 -192.77 -247.642)" d="M706.28 577.623C706.402 578.3 706.4 578.634 706.102 579.295C695.098 603.768 674.426 621.068 652.44 635.406C646.445 639.316 640.637 643.46 634.427 646.499C634.41 645.36 637.148 643.25 638.112 642.377C661.369 621.321 684.867 600.582 706.28 577.623Z"/><path fill="#366688" transform="matrix(1.14065 0 0 1.14121 -192.77 -247.642)" d="M688.977 555.707L689.453 556.532C683.117 567.753 666.784 579.105 656.414 586.256L656.136 586.128C656.964 584.024 658.71 582.02 659.992 580.112C667.404 569.083 677.789 562.476 688.977 555.707Z"/><path fill="#F8CA47" transform="matrix(1.14065 0 0 1.14121 -192.77 -247.642)" d="M363.093 841.695C376.076 828.674 390.861 816.715 404.863 803.375C415.747 793.005 434.267 774.553 447.82 766.43C449.363 765.506 459.533 765.059 461.305 766.463C459.514 769.855 417.607 809.284 411.538 815.664L412.016 817.439C430.994 801.536 450.934 786.51 470.246 770.424C484.574 782.322 482.65 793.344 469.237 805.035C474.443 806.163 478.035 806.72 483.317 807.367C473.169 817.689 459.07 829.893 448.157 839.861L400.896 883.378C400.027 876.922 399.554 874.154 396.999 868.22C395.805 865.902 394.461 863.696 393.135 861.45C385.311 851.204 375.322 845.179 363.093 841.695Z"/><path fill="#366688" transform="matrix(1.14065 0 0 1.14121 -192.77 -247.642)" d="M452.626 811.763L454.249 812.472C435.646 836.946 421.903 849.686 396.999 868.22C395.805 865.902 394.461 863.696 393.135 861.45C413.488 845.523 433.328 828.952 452.626 811.763Z"/><path fill="#6F5126" transform="matrix(1.14065 0 0 1.14121 -192.77 -247.642)" d="M411.538 815.664L412.016 817.439L405.639 822.699L404.787 822.171L405.327 822.917L404.538 822.51L404.96 823.152L404.243 822.976L404.639 823.327L404.303 823.447L404.501 822.612L405.171 823.068L404.87 822.14C406.747 819.977 409.399 817.648 411.538 815.664Z"/><path fill="#968268" transform="matrix(1.14065 0 0 1.14121 -192.77 -247.642)" d="M457.974 806.806C456.867 808.829 455.927 810.957 454.249 812.472L452.626 811.763C454.448 809.745 455.906 808.558 457.974 806.806Z"/><path fill="#F8CA47" transform="matrix(1.14065 0 0 1.14121 -192.77 -247.642)" d="M490.933 725.632C499.187 717.811 535.646 682.298 542.858 679.448C549.586 676.79 556.513 677.106 563.088 679.934C565.14 680.874 566.183 681.195 567.836 682.763C581.736 694.535 579.347 705.011 567.195 716.864C573.011 718.076 577.821 717.861 583.745 717.741L527.323 769.357C526.728 766.631 526.147 763.723 525.481 761.031C525.011 758.586 523.923 756.259 522.976 753.935C518.801 745.867 514.298 741.187 507.952 735.06C513.201 729.984 518.386 724.843 523.505 719.637L522.872 718.117C516.474 722.694 510.109 727.317 503.778 731.987C498.889 729.242 496.128 727.771 490.933 725.632Z"/><path fill="#366688" transform="matrix(1.14065 0 0 1.14121 -192.77 -247.642)" d="M522.976 753.935C533.245 745.068 544.954 737.398 555.527 728.843C557.515 727.234 559.622 725.742 561.773 724.358C555.047 732.841 548.814 740.293 540.907 747.733C535.863 752.478 530.439 756.526 525.481 761.031C525.011 758.586 523.923 756.259 522.976 753.935Z"/><defs><linearGradient id="gradient_1" gradientUnits="userSpaceOnUse" x1="565.15271" y1="681.62653" x2="549.08716" y2="697.62097"><stop offset="0" stop-color="#3D4B4C"/><stop offset="1" stop-color="#787974"/></linearGradient></defs><path fill="url(#gradient_1)" transform="matrix(1.14065 0 0 1.14121 -192.77 -247.642)" d="M563.088 679.934C565.14 680.874 566.183 681.195 567.836 682.763C561.242 689.693 552.676 698.007 545.63 704.389C550.201 697.034 557.761 686.708 563.088 679.934Z"/><path fill="#6F5126" transform="matrix(1.14065 0 0 1.14121 -192.77 -247.642)" d="M530.698 712.408C528.594 714.632 525.791 717.776 523.505 719.637L522.872 718.117C525.528 715.935 527.851 714.35 530.698 712.408Z"/><path fill="#366688" transform="matrix(1.14065 0 0 1.14121 -192.77 -247.642)" d="M533.853 639.392C539.756 641.008 553.115 644.828 558.726 644.594C564.136 644.225 569.718 642.666 575.16 643.009C595.59 644.298 615.056 664.329 613.832 685.161C613.615 688.852 612.278 695.814 609.449 698.332C603.061 694.441 611.212 667.621 570.044 656.299C578.947 662.719 584.477 665.896 590.845 675.186C599.033 688.359 600.108 699.722 584.769 707.582C588.172 695.563 586.57 686.788 577.213 677.952C570.067 671.201 560.496 667.627 550.675 668.042C540.096 668.507 531.691 673.571 524.635 681.19C526.645 666.015 535.107 663.437 548.428 659.536C540.226 651.707 532.516 651.755 521.948 652.169C525.861 647.86 529.83 643.6 533.853 639.392Z"/><path fill="#F8CA47" transform="matrix(1.14065 0 0 1.14121 -192.77 -247.642)" d="M354.782 849.983C377.968 849.572 404.67 884.385 385.242 896.482C370.874 897.22 359.544 886.921 352.726 874.964C348.418 867.409 344.549 854.74 354.782 849.983Z"/><path fill="#366688" transform="matrix(1.14065 0 0 1.14121 -192.77 -247.642)" d="M356.898 859.81C358.598 860.941 361.059 868.081 363.371 870.79C365.676 873.491 373.741 882.918 377.674 879.441C378.914 876.056 377.73 872.852 376.67 869.567C379.435 872.759 380.523 874.024 382.365 877.806C387.815 899.302 352.418 880.761 356.898 859.81Z"/><path fill="#F8CA47" transform="matrix(1.14065 0 0 1.14121 -192.77 -247.642)" d="M676.301 252.281C688.393 251.384 702.34 251.858 714.487 252.29C704.137 255.43 687.501 257.527 676.088 260.095C655.933 264.629 638.396 269.921 618.717 276.085L599.575 282.62C610.856 269.748 607.724 270.787 625.046 264.338C621.137 264.499 615.197 265.879 612.466 263.836C611.763 261.756 611.772 262.786 612.549 260.64C616.598 256.658 668.398 252.691 676.301 252.281Z"/><path fill="#F8CA47" transform="matrix(1.14065 0 0 1.14121 -192.77 -247.642)" d="M709.198 259.494L709.631 259.788C708.798 261.281 630.908 294.654 620.824 299.387C616.462 298.145 611.656 296.415 607.319 294.962L599.696 292.32C610.083 287.398 631.973 280.186 643.091 276.952C662.701 271.246 689.231 263.034 709.198 259.494Z"/></g></svg>