<svg xmlns="http://www.w3.org/2000/svg" xmlns:xlink="http://www.w3.org/1999/xlink" width="373" height="213" viewBox="0 0 373 213"><metadata><rdf:RDF xmlns:rdf="http://www.w3.org/1999/02/22-rdf-syntax-ns#" xmlns:dc="http://purl.org/dc/elements/1.1/"><rdf:Description><dc:creator>RealFaviconGenerator</dc:creator><dc:source>https://realfavicongenerator.net</dc:source></rdf:Description></rdf:RDF></metadata><clipPath id="cl_3"><rect width="373" height="213"></rect></clipPath><g clip-path="url(#cl_3)"><path fill="#1D1C1C" transform="translate(-375 -223)" d="M523.603 224.667C559.14 223.397 580.153 232.564 609.495 250.785C660.488 241.398 698.153 239.495 749.136 247.862C725.592 263.451 698.462 275.313 672.609 286.615C658.997 292.565 640.082 299.542 627.606 307.375C622.089 310.84 610.296 325.345 605.914 330.911C566.555 380.898 602.996 389.935 607.978 434.355C616.342 508.928 585.591 574.33 540.98 631.285C545.318 631.946 552.212 634.1 556.361 634.148C562.751 634.223 568.837 633.474 575.469 633.462C600.484 610.787 625.343 587.942 650.046 564.928C658.263 557.344 666.352 549.653 674.617 542.099C681.828 535.223 691.286 531.288 701.368 531.95C722.952 533.542 742.347 554.211 740.58 576.193C739.471 589.986 730.826 596.771 721.409 605.614C715.342 611.312 709.141 616.902 702.967 622.506L656.142 665.271C645.958 674.502 635.65 683.572 625.746 693.138C620.18 698.514 620.276 701.784 616.516 708.371C613.54 713.583 610.228 716.708 605.678 720.492C605.325 717.54 604.925 714.594 604.478 711.654C578.181 735.116 552.262 760.088 525.752 783.152C523.059 795.271 516.773 803.784 506.909 811.107C506.751 807.751 506.313 804.068 505.98 800.694C478.726 823.917 453.106 848.413 426.701 872.552C417.453 881.007 402.852 895.13 393.401 902.002C371.31 918.065 336.767 881.954 338.965 859.143C340.231 846.003 348.557 841.598 357.586 833.269C377.235 816.868 400.85 794.042 420.038 776.425C418.549 762.122 421.595 750.144 435.232 743.118C428.516 739.296 420.667 737.898 413.17 736.426C398.186 746.083 382.548 754.684 366.369 762.167C357.781 766.139 348.424 769.637 340.159 773.603C338.182 782.978 334.009 797.287 330.783 806.558C315.661 850.014 302.787 934.025 249.586 945.978C235.1 966.974 217.316 995.984 187.278 989.104C190.017 972.195 196.951 948.414 201.526 931.318C212.842 889.027 225.693 846.862 237.732 804.709C214.892 815.011 194.081 826.328 170.171 835.694C178.045 816.891 188.341 796.063 197.085 777.486C208.388 753.251 219.551 728.95 230.574 704.585C261.443 636.385 286.639 571.63 327.796 508.375C340.933 487.815 355.457 468.174 371.267 449.589C379.642 439.825 388.331 430.334 397.32 421.132C409.867 408.437 430.024 392.651 436.974 377.099C447.311 353.966 440.287 333.409 431.769 311.483C430.649 310.982 429.537 310.464 428.433 309.929C404.542 298.341 385.523 275.011 376.865 250.107C392.994 251.519 402.68 253.416 419.556 251.17C458.322 246.011 483.653 227.388 523.603 224.667ZM512.262 661.564C499.469 673.43 488.155 683.751 474.363 694.489C466.884 700.312 458.764 706.003 451.482 711.753C455.043 714.923 458.007 717.295 461.753 720.187L466.291 723.285C470.418 723.338 474.733 723.462 478.842 723.419L515.632 689.629C514.234 679.49 515 672.13 521.386 663.749C522.136 662.775 522.914 661.823 523.719 660.895L516.705 661.298L512.262 661.564Z"></path><path fill="#366688" transform="translate(-375 -223)" d="M391.117 260.84C402.566 261.349 408.905 262.349 420.813 261.054C453.828 257.464 483.09 239.283 515.384 235.155C547.191 231.06 579.317 239.831 604.632 259.521C603.51 262.933 602.308 266.629 599.98 269.393L594.054 275.973C590.947 279.432 582.756 289.17 579.899 291.695C583.307 293.608 586.596 295.149 590.116 296.822C592.034 297.648 597.302 299.774 598.853 300.696C604.518 303.247 608.986 304.292 614.968 305.882C598.059 325.376 576.66 347.266 578.372 375.078C579.38 391.464 589.582 402.984 594.775 418.625C598.408 429.566 597.296 435.835 599.259 444.636C600.21 451.517 599.589 464.863 599.096 471.887C591.881 574.829 516.912 655.224 435.882 710.709C440.293 714.891 444.885 718.842 449.411 722.844C457.16 729.856 461.774 734.159 472.824 733.033C494.517 730.823 517.277 751.334 518.076 772.912C518.252 777.662 515.67 788.207 512.198 791.178C509.38 788.987 508.691 774.878 506.816 770.787C501.146 758.419 487.572 748.262 474.634 745.549C484.254 751.951 492.055 758.57 496.994 769.366C502.884 782.239 501.35 792.706 486.909 797.743C489.823 790.117 490.904 784.167 487.407 776.389C479.594 759.01 458.642 751.144 441.275 758.839C436.588 760.914 433.789 763.539 430.081 766.825C429.363 765.205 429.998 762.602 430.661 761.027C434.415 752.105 445.653 749.046 454.079 747.131C442.918 732.93 430.106 729.388 412.925 725.986C404.787 729.659 393.446 737.766 384.97 742.343C367.152 751.964 350.527 758.958 331.797 766.351C327.083 787.091 320.451 807.873 314.261 828.228C307.726 849.716 300.928 872.065 291.972 892.669C284.393 910.106 270.645 927.037 253.253 935.034C258.786 911.616 264.954 886.768 268.594 863.043C254.213 899.318 241.493 968.757 199.171 981.315C210.283 933.359 224.229 887.06 237.8 839.793C241.536 826.781 247.186 810.166 250.133 797.457C316.266 760.959 374.431 717.851 430.384 667.022C475.338 626.184 522.393 582.652 540.58 522.583C544.806 508.626 550.697 466.986 542.858 455.005C544.713 518.943 514.724 566.527 472.466 612.744C465.548 620.31 454.168 631.909 446.411 638.012C443.21 642.528 382.598 696.61 378.444 698.367C323.132 746.497 255.597 785.953 189.554 817.194C193.724 806.747 200.283 794.549 205.045 783.587C206.101 781.04 207.424 778.451 208.615 775.954C218.404 755.438 227.41 734.603 237.345 714.147C240.302 706.739 244.275 698.274 247.714 691.105C249.454 685.507 259.397 664.152 261.938 659.007C263.932 653.852 266.527 648.116 268.715 642.98C275.498 627.869 287.039 599.935 294.908 586.476C298.202 579.098 302.503 571.18 306.348 564.088C307.255 561.488 318.137 543.209 320.113 539.785C338.654 507.67 360.721 476.302 385.28 448.519C397.7 434.47 410.872 421.979 424.261 408.914C429.155 404.048 433.731 399.587 437.867 394.006C448.8 379.407 453.445 361.043 450.769 343.001C450.78 343.024 447.153 325.802 446.433 323.362C445.08 319.851 441.095 310.198 440.834 307.055C438.44 302.469 427.016 299.397 421.735 295.447C414.401 289.961 411.354 286.784 405.429 280.132L414.206 280.037C403.901 274.044 397.816 271.356 391.117 260.84Z"></path><path fill="#366688" transform="translate(-375 -223)" d="M391.117 260.84C402.566 261.349 408.905 262.349 420.813 261.054C453.828 257.464 483.09 239.283 515.384 235.155C547.191 231.06 579.317 239.831 604.632 259.521C603.51 262.933 602.308 266.629 599.98 269.393L594.054 275.973C584.62 274.085 575.123 272.521 565.581 271.285C562.67 264.794 556.216 260.621 549.102 260.63C541.989 260.638 535.545 264.828 532.65 271.326C517.111 271.929 503.358 274.388 488.406 278.389C462.909 285.211 456.431 301.718 446.433 323.362C445.08 319.851 441.095 310.198 440.834 307.055C438.44 302.469 427.016 299.397 421.735 295.447C414.401 289.961 411.354 286.784 405.429 280.132L414.206 280.037C403.901 274.044 397.816 271.356 391.117 260.84Z"></path><path fill="#F8CA47" transform="translate(-375 -223)" d="M440.834 307.055C448.148 287.986 456.645 276.732 475.768 268.426C514.431 251.633 561.412 254.937 599.98 269.393L594.054 275.973C584.62 274.085 575.123 272.521 565.581 271.285C562.67 264.794 556.216 260.621 549.102 260.63C541.989 260.638 535.545 264.828 532.65 271.326C517.111 271.929 503.358 274.388 488.406 278.389C462.909 285.211 456.431 301.718 446.433 323.362C445.08 319.851 441.095 310.198 440.834 307.055Z"></path><path fill="#FEFEFE" transform="translate(-375 -223)" d="M598.853 300.696C604.518 303.247 608.986 304.292 614.968 305.882C598.059 325.376 576.66 347.266 578.372 375.078C579.38 391.464 589.582 402.984 594.775 418.625C598.408 429.566 597.296 435.835 599.259 444.636C599.167 446.07 599.278 448.189 598.587 449.184C594.198 441.198 587.576 429.026 582.164 421.922L579.02 429.769C575.635 415.423 574.584 408.506 563.791 397.73L563.068 408.528C556.782 400.644 551.234 392.555 547.388 383.197L543.734 390.4C540.591 384.604 540.32 381.523 539.18 375.093L532.855 381.553C528.588 370.288 527.528 361.679 534.696 351.439C543.559 347.751 547.398 345.418 554.381 338.528C567.539 325.544 586.208 313.941 598.853 300.696Z"></path><path fill="#FEFEFE" transform="translate(-375 -223)" d="M462.732 324.674C472.852 339.124 486.488 344.219 502.99 348.618C500.448 349.761 487.685 354.772 489.421 358.168C491.253 361.75 490.255 366.65 491.918 369.781C504.778 394.002 521.97 390.264 529.582 420.881C505.77 394.044 475.664 396.673 443.463 403.677C439.015 404.645 427.61 409.065 424.261 408.914C429.155 404.048 433.731 399.587 437.867 394.006C448.8 379.407 453.445 361.043 450.769 343.001C452.251 335.613 457.199 329.505 462.732 324.674Z"></path><path fill="#F8CA47" transform="translate(-375 -223)" d="M484.824 327.487C514.445 331.792 523.981 329.331 546.777 311.269C554.269 305.332 571.27 295.537 579.899 291.695C583.307 293.608 586.596 295.149 590.116 296.822C585.805 301.222 569.629 312.067 563.797 316.542C557.256 321.561 544.586 332.68 538.388 336.355C534.57 338.647 530.325 340.138 525.913 340.737C511.018 342.774 496.409 336.407 484.824 327.487Z"></path><path fill="#1D1C1C" transform="translate(-375 -223)" d="M532.65 271.326C535.545 264.828 541.989 260.638 549.102 260.63C556.216 260.621 562.67 264.794 565.581 271.285C568.972 278.847 566.774 287.747 560.253 292.86C553.731 297.974 544.565 297.985 538.031 292.887C531.497 287.79 529.278 278.896 532.65 271.326Z"></path><path fill="#FEFEFE" transform="translate(-375 -223)" d="M545.334 267.502C551.406 265.526 557.934 268.825 559.944 274.887C561.955 280.948 558.693 287.495 552.644 289.54C546.546 291.601 539.935 288.307 537.908 282.197C535.882 276.087 539.213 269.495 545.334 267.502Z"></path><path fill="#1D1C1C" transform="translate(-375 -223)" d="M547.931 273.02C551.092 272.103 554.404 273.888 555.375 277.033C556.346 280.178 554.617 283.521 551.49 284.545C549.419 285.224 547.143 284.732 545.536 283.259C543.93 281.786 543.243 279.561 543.74 277.439C544.236 275.317 545.838 273.628 547.931 273.02Z"></path><path fill="#F8CA47" transform="translate(-375 -223)" d="M676.301 252.281C688.393 251.384 702.34 251.858 714.487 252.29C704.137 255.43 687.501 257.527 676.088 260.095C655.933 264.629 638.396 269.921 618.717 276.085L599.575 282.62C610.856 269.748 607.724 270.787 625.046 264.338C621.137 264.499 615.197 265.879 612.466 263.836C611.763 261.756 611.772 262.786 612.549 260.64C616.598 256.658 668.398 252.691 676.301 252.281Z"></path><path fill="#F8CA47" transform="translate(-375 -223)" d="M709.198 259.494L709.631 259.788C708.798 261.281 630.908 294.654 620.824 299.387C616.462 298.145 611.656 296.415 607.319 294.962L599.696 292.32C610.083 287.398 631.973 280.186 643.091 276.952C662.701 271.246 689.231 263.034 709.198 259.494Z"></path></g><style>@media (prefers-color-scheme: light) { :root { filter: none; } }
@media (prefers-color-scheme: dark) { :root { filter: none; } }
</style></svg>